<mxfile host="app.diagrams.net" modified="2021-06-18T02:04:53.599Z" agent="5.0 (Windows NT 10.0; Win64; x64) AppleWebKit/537.36 (KHTML, like Gecko) Chrome/91.0.4472.106 Safari/537.36" etag="ifVHDwS82J4tQ2mhI3vL" version="14.7.10" type="github">
  <diagram id="SEOB5XDOPymY8l25x1wQ" name="Page-1">
    <mxGraphModel dx="1422" dy="762" grid="1" gridSize="10" guides="1" tooltips="1" connect="1" arrows="1" fold="1" page="1" pageScale="1" pageWidth="827" pageHeight="1169" math="0" shadow="0">
      <root>
        <mxCell id="0" />
        <mxCell id="1" parent="0" />
        <mxCell id="yRkmHUmVrykvGGlVepZl-13" value="&lt;font style=&quot;font-size: 16px&quot;&gt;Game集群&lt;/font&gt;" style="html=1;align=center;verticalAlign=top;rounded=1;absoluteArcSize=1;arcSize=20;dashed=1;" parent="1" vertex="1">
          <mxGeometry x="270" y="120" width="200" height="220" as="geometry" />
        </mxCell>
        <mxCell id="liy4fSB-X169dlNzwTOQ-1" value="&lt;font style=&quot;font-size: 17px&quot;&gt;联盟&lt;/font&gt;" style="text;html=1;strokeColor=none;fillColor=none;align=center;verticalAlign=middle;whiteSpace=wrap;rounded=0;" vertex="1" parent="1">
          <mxGeometry x="290" y="20" width="200" height="30" as="geometry" />
        </mxCell>
        <mxCell id="liy4fSB-X169dlNzwTOQ-13" value="&lt;font style=&quot;font-size: 15px&quot;&gt;Scence&lt;/font&gt;" style="rounded=1;whiteSpace=wrap;html=1;arcSize=40;fontColor=#000000;fillColor=#ffffc0;strokeColor=#ff0000;" vertex="1" parent="1">
          <mxGeometry x="610" y="200" width="120" height="60" as="geometry" />
        </mxCell>
        <mxCell id="liy4fSB-X169dlNzwTOQ-15" value="&lt;span style=&quot;font-size: 15px&quot;&gt;Alliance&lt;/span&gt;&lt;br style=&quot;font-size: 15px&quot;&gt;&lt;span style=&quot;font-size: 15px&quot;&gt;(联盟服)&lt;/span&gt;" style="rounded=1;whiteSpace=wrap;html=1;arcSize=40;fontColor=#000000;fillColor=#ffffc0;strokeColor=#ff0000;" vertex="1" parent="1">
          <mxGeometry x="640" y="570" width="120" height="60" as="geometry" />
        </mxCell>
        <mxCell id="liy4fSB-X169dlNzwTOQ-17" value="&lt;font style=&quot;font-size: 15px&quot;&gt;Game1&lt;/font&gt;" style="rounded=1;whiteSpace=wrap;html=1;arcSize=40;fontColor=#000000;fillColor=#ffffc0;strokeColor=#ff0000;" vertex="1" parent="1">
          <mxGeometry x="310" y="170" width="120" height="60" as="geometry" />
        </mxCell>
        <mxCell id="liy4fSB-X169dlNzwTOQ-19" value="&lt;font style=&quot;font-size: 15px&quot;&gt;GameN&lt;/font&gt;" style="rounded=1;whiteSpace=wrap;html=1;arcSize=40;fontColor=#000000;fillColor=#ffffc0;strokeColor=#ff0000;" vertex="1" parent="1">
          <mxGeometry x="310" y="260" width="120" height="60" as="geometry" />
        </mxCell>
        <mxCell id="liy4fSB-X169dlNzwTOQ-21" value="&lt;font style=&quot;font-size: 15px&quot;&gt;Public&lt;/font&gt;" style="rounded=1;whiteSpace=wrap;html=1;arcSize=40;fontColor=#000000;fillColor=#ffffc0;strokeColor=#ff0000;" vertex="1" parent="1">
          <mxGeometry x="70" y="270" width="120" height="60" as="geometry" />
        </mxCell>
        <mxCell id="liy4fSB-X169dlNzwTOQ-26" value="" style="edgeStyle=orthogonalEdgeStyle;html=1;verticalAlign=bottom;endArrow=open;endSize=8;strokeColor=#ff0000;exitX=1;exitY=0.5;exitDx=0;exitDy=0;entryX=0;entryY=0.5;entryDx=0;entryDy=0;" edge="1" source="yRkmHUmVrykvGGlVepZl-13" parent="1" target="liy4fSB-X169dlNzwTOQ-13">
          <mxGeometry relative="1" as="geometry">
            <mxPoint x="270" y="330" as="targetPoint" />
            <mxPoint x="270" y="260" as="sourcePoint" />
          </mxGeometry>
        </mxCell>
        <mxCell id="liy4fSB-X169dlNzwTOQ-30" value="" style="edgeStyle=orthogonalEdgeStyle;html=1;verticalAlign=bottom;endArrow=open;endSize=8;strokeColor=#ff0000;entryX=0.5;entryY=1;entryDx=0;entryDy=0;entryPerimeter=0;exitX=0.5;exitY=0;exitDx=0;exitDy=0;" edge="1" source="liy4fSB-X169dlNzwTOQ-15" parent="1" target="liy4fSB-X169dlNzwTOQ-13">
          <mxGeometry relative="1" as="geometry">
            <mxPoint x="540" y="410" as="targetPoint" />
            <mxPoint x="540" y="350" as="sourcePoint" />
          </mxGeometry>
        </mxCell>
        <mxCell id="liy4fSB-X169dlNzwTOQ-34" value="" style="edgeStyle=orthogonalEdgeStyle;html=1;verticalAlign=bottom;endArrow=open;endSize=8;strokeColor=#ff0000;" edge="1" parent="1">
          <mxGeometry relative="1" as="geometry">
            <mxPoint x="340" y="500" as="targetPoint" />
            <mxPoint x="340" y="440" as="sourcePoint" />
          </mxGeometry>
        </mxCell>
        <mxCell id="liy4fSB-X169dlNzwTOQ-37" value="Client" style="shape=umlActor;verticalLabelPosition=bottom;verticalAlign=top;html=1;strokeColor=#000000;" vertex="1" parent="1">
          <mxGeometry x="40" y="90" width="30" height="60" as="geometry" />
        </mxCell>
        <mxCell id="liy4fSB-X169dlNzwTOQ-46" value="" style="html=1;align=center;verticalAlign=top;rounded=1;absoluteArcSize=1;arcSize=20;dashed=1;strokeColor=#000000;" vertex="1" parent="1">
          <mxGeometry x="70" y="390" width="200" height="100" as="geometry" />
        </mxCell>
      </root>
    </mxGraphModel>
  </diagram>
</mxfile>
